<?xml version="1.0" standalone="no"?>
<!DOCTYPE svg PUBLIC "-//W3C//DTD SVG 20010904//EN"
 "http://www.w3.org/TR/2001/REC-SVG-20010904/DTD/svg10.dtd">
<svg version="1.0" xmlns="http://www.w3.org/2000/svg"
 width="260.000000pt" height="260.000000pt" viewBox="0 0 260.000000 260.000000"
 preserveAspectRatio="xMidYMid meet">
<metadata>
Created by potrace 1.11, written by Peter Selinger 2001-2013
</metadata>
<g transform="translate(0.000000,260.000000) scale(0.100000,-0.100000)"
fill="#000000" stroke="none">
<path d="M214 1927 c-107 -98 7 -255 140 -192 87 41 87 169 0 210 -54 25 -99
20 -140 -18z"/>
<path d="M507 1942 c-43 -29 -56 -53 -57 -103 0 -105 124 -156 206 -84 40 34
54 93 32 135 -33 62 -125 88 -181 52z"/>
<path d="M779 1937 c-70 -47 -70 -147 0 -194 102 -69 233 31 187 142 -30 70
-122 96 -187 52z"/>
<path d="M1070 1947 c-42 -21 -70 -73 -64 -121 13 -109 161 -144 226 -54 25
36 27 95 4 130 -33 50 -113 72 -166 45z"/>
<path d="M1354 1950 c-37 -15 -74 -68 -74 -107 0 -147 228 -168 247 -22 13 95
-82 166 -173 129z"/>
<path d="M1622 1943 c-50 -24 -74 -80 -59 -136 20 -73 106 -109 177 -72 88 46
94 146 11 202 -40 27 -83 29 -129 6z"/>
<path d="M1892 1940 c-48 -29 -67 -80 -50 -133 33 -101 172 -116 228 -25 35
58 9 137 -55 164 -47 19 -84 18 -123 -6z"/>
<path d="M215 1658 c-88 -81 -39 -203 80 -203 58 0 97 23 117 69 34 82 -29
166 -126 166 -27 0 -45 -8 -71 -32z"/>
<path d="M514 1674 c-91 -45 -82 -186 15 -215 82 -24 158 20 167 97 6 48 -11
81 -55 111 -39 26 -83 29 -127 7z"/>
<path d="M1063 1670 c-97 -59 -67 -202 45 -217 119 -16 192 107 116 193 -43
48 -107 58 -161 24z"/>
<path d="M1354 1680 c-64 -25 -92 -111 -57 -171 61 -103 233 -58 233 61 0 84
-94 143 -176 110z"/>
<path d="M1892 1670 c-77 -47 -76 -154 1 -200 104 -64 236 46 182 151 -34 64
-120 87 -183 49z"/>
<path d="M2180 1678 c-35 -19 -70 -76 -70 -115 0 -49 52 -102 106 -110 70 -9
136 35 148 99 5 32 -20 89 -51 112 -32 24 -100 31 -133 14z"/>
<path d="M244 1421 c-38 -17 -74 -70 -74 -109 0 -124 171 -168 234 -62 43 74
-7 168 -94 176 -25 2 -54 0 -66 -5z"/>
<path d="M504 1410 c-73 -47 -72 -155 1 -200 51 -31 104 -27 151 14 36 31 39
38 39 86 0 48 -3 55 -39 86 -47 41 -102 46 -152 14z"/>
<path d="M1062 1410 c-18 -11 -40 -36 -49 -55 -15 -32 -16 -40 -3 -78 25 -71
110 -108 173 -76 52 27 72 66 67 128 -7 82 -112 127 -188 81z"/>
<path d="M1354 1420 c-64 -25 -92 -111 -57 -171 63 -106 233 -58 233 66 0 30
-8 45 -39 76 -32 32 -45 39 -77 38 -22 0 -48 -4 -60 -9z"/>
<path d="M1903 1415 c-84 -36 -91 -156 -11 -205 70 -43 160 -11 187 65 34 101
-72 186 -176 140z"/>
<path d="M2169 1407 c-72 -48 -78 -128 -13 -184 98 -85 238 4 199 127 -23 72
-120 102 -186 57z"/>
<path d="M244 1160 c-11 -4 -33 -22 -47 -40 -39 -46 -37 -99 6 -146 99 -109
274 11 200 137 -29 49 -103 72 -159 49z"/>
<path d="M517 1155 c-69 -35 -87 -90 -54 -158 37 -77 144 -89 204 -23 53 57
42 127 -26 173 -39 26 -84 29 -124 8z"/>
<path d="M1059 1147 c-22 -14 -39 -38 -48 -64 -13 -37 -13 -45 3 -81 38 -85
168 -97 218 -20 39 59 23 131 -37 168 -43 26 -94 25 -136 -3z"/>
<path d="M1354 1160 c-34 -14 -74 -69 -74 -102 0 -69 56 -128 123 -128 102 0
161 105 105 186 -13 18 -33 38 -46 43 -27 13 -78 13 -108 1z"/>
<path d="M1892 1150 c-77 -47 -76 -154 1 -200 103 -63 228 37 182 146 -17 41
-68 74 -115 74 -19 0 -50 -9 -68 -20z"/>
<path d="M2169 1147 c-83 -56 -77 -156 11 -202 82 -43 181 14 182 104 1 95
-112 153 -193 98z"/>
<path d="M214 877 c-65 -59 -54 -156 22 -192 58 -27 113 -16 158 32 48 52 27
146 -40 178 -54 25 -99 20 -140 -18z"/>
<path d="M504 890 c-75 -48 -73 -154 3 -201 102 -63 233 46 180 151 -32 63
-123 88 -183 50z"/>
<path d="M1063 890 c-69 -42 -80 -130 -23 -182 36 -33 68 -42 116 -33 39 7 94
55 95 83 0 9 2 24 4 33 5 27 -26 78 -60 99 -41 25 -91 25 -132 0z"/>
<path d="M1354 901 c-33 -14 -74 -70 -74 -100 0 -79 47 -126 125 -126 55 0 96
23 114 63 35 74 -17 161 -99 168 -25 2 -54 0 -66 -5z"/>
<path d="M1905 896 c-85 -37 -93 -157 -13 -206 111 -67 237 49 177 162 -15 28
-69 58 -104 58 -16 -1 -44 -7 -60 -14z"/>
<path d="M2167 889 c-63 -48 -74 -119 -26 -173 96 -110 275 0 206 126 -35 65
-124 88 -180 47z"/>
</g>
</svg>
